#!OML:ASF F:\VICON\USERDATA\INSTALL\rory3\rory3.ASF
:FULLY-SPECIFIED
:DEGREES
1
root -1.695427735862474 17.102209474616753 -30.087383012929447 3.202355934258083 -5.29884359312498 -3.8874189349683816
lfemur -13.855303848609298 8.654586345283397 -13.735512137113266
ltibia 102.10898457227827
lfoot 21.168289340542707 -15.717393030514078
ltoes 12.748976135783607
rfemur -30.298593740718434 7.297112594531766 30.843293543272914
rtibia 56.90000304706296
rfoot -18.779985770915367 -8.906249214838645
rtoes -3.7099649062881634
lowerback 17.28888862275521 -0.4636384780817123 1.9990373900814271
upperback 1.0901593463767136 0.011014305118395518 2.685915878547276
thorax -8.53850841483624 -0.018459216403929557 1.7598227367993586
lowerneck -18.307906180702616 -2.4124938705807537 -2.3081801787669853
upperneck 15.254690592621781 -2.903974473413611 1.215735570293564
head 7.768834891807649 -1.3966737069315431 0.4332175994934497
lclavicle 1.1641081388121368e-16 1.6716104300328672e-15
lhumerus -45.78950599475485 -10.261391552147833 96.10828790418259
lradius 86.51070943835616
lwrist 33.942503202766765
lhand -29.903397793685276 0.3075781659852259
lfingers 7.125019999999998
lthumb -3.2241678011571695 30.262904226338225
rclavicle 1.1641081388121368e-16 1.6716104300328672e-15
rhumerus -48.71339683721564 8.724104800856146 -96.14849469789684
rradius 96.89730592686875
rwrist -18.050106391167763
rhand -19.9358931870508 40.44470247248714
rfingers 7.125019999999998
rthumb 6.401746783737203 10.561502689406286
2
root -1.7093373546040858 16.951811990984677 -29.174983229673554 3.6410025771199397 -4.185056330152177 -4.226087729377146
lfemur -21.046300333929626 9.755284237534624 -12.062414553987916
ltibia 107.8949847570378
lfoot 19.215190450643497 -16.00309257416967
ltoes 6.5486728992345
rfemur -27.5559953516452 7.348422625193119 31.633892295563545
rtibia 57.790202880834634
rfoot -21.806183271405303 -11.850193153012512
rtoes -7.487521798724853
lowerback 17.73998580488839 -0.6671270069548597 1.611878358038369
upperback 0.07105665549887563 -0.19895628391350395 3.507999357592478
thorax -9.907685884494718 -0.07543028498057269 2.9632875083112538
lowerneck -16.242618307600587 -2.2866648362127093 -3.3856967448845876
upperneck 15.17989099812257 -2.5470760810049247 1.347564614466299
head 7.39939279298938 -1.2883747732727477 0.713339523801171
lclavicle 1.1641084117682324e-16 1.6716104763630726e-15
lhumerus -48.675203674771396 -7.93584731707734 96.97388540752502
lradius 83.74391238483476
lwrist 33.114207036005546
lhand -30.260296810262698 -6.547368246148672
lfingers 7.125019999999998
lthumb -3.5687867949297445 23.40251128996677
rclavicle 1.1641084117682324e-16 1.6716104763630726e-15
rhumerus -45.96799873017245 12.23249965483959 -96.15189475942056
rradius 98.09660457919766
rwrist -18.5568049559526
rhand -19.594295284669048 40.49500229535119
rfingers 7.125019999999998
rthumb 6.731494728704084 10.622002443360717
3
root -1.706797416546645 16.841113863141143 -28.271284326277584 3.8924306649414677 -4.44000575119039 -3.694779263746775
lfemur -27.537497406694527 11.768080174853655 -12.34611403450248
ltibia 111.67598377912088
lfoot 15.411892438402823 -15.521093212715762
ltoes -3.8020372865155077
rfemur -23.893596252133456 8.170711098155955 31.24949278175677
rtibia 57.775202749868875
rfoot -23.56388250274174 -13.265390396115897
rtoes -7.766261904205534
lowerback 17.334388269488706 0.06077270770871701 1.3957788863699276
upperback 0.4407468731756018 0.6362133464186397 2.9386837557878445
thorax -9.295255951957426 0.31396852416413207 2.234940756708291
lowerneck -17.621710229552214 -2.7052620059559547 -2.715491322240327
upperneck 15.139191232516126 -3.301352649294402 1.6813023395613997
head 7.635427737037215 -1.5676319155106337 0.613807392472621
lclavicle 1.1641080730101213e-16 1.6716104260615601e-15
lhumerus -50.13160226738495 -9.022244562862097 96.69588602256323
lradius 83.43091075514852
lwrist 32.63490935038069
lhand -29.875197836041547 -7.478717541020941
lfingers 7.125019999999998
lthumb -3.196977860715065 22.477011794965673
rclavicle 1.1641080730101213e-16 1.6716104260615601e-15
rhumerus -41.54410162776887 13.162398330013328 -96.41249378592781
rradius 100.83800244356361
rwrist -18.17680600167599
rhand -20.528789680871345 39.54800570723941
rfingers 7.125019999999998
rthumb 5.829310231322842 9.648215957995864
4
root -1.7008276093474168 16.883313188803054 -27.30698347160482 4.153668657713184 -3.9152072114049377 -3.898058971314974
lfemur -33.645194365215346 12.739478063793744 -12.201414346227308
ltibia 112.90298052842765
lfoot 12.46029379074621 -15.955092519774302
ltoes -5.353115609705204
rfemur -19.859298090266496 8.09656141594729 31.881691955094798
rtibia 56.57020320398918
rfoot -24.288781235312033 -15.27648628751679
rtoes -12.030388989077046
lowerback 17.295088478370907 0.12795437964944611 1.6880081413963528
upperback 0.047604665617607456 0.8093586141498588 3.054922951308559
thorax -9.710339103035084 0.3877418149870183 2.157580992854327
lowerneck -16.7822151550031 -2.8388910977241304 -2.9783156265535204
upperneck 14.902792582978124 -3.4894018860550386 1.9574601997293994
head 7.4276321897738065 -1.6521209766082476 0.736111863456118
lclavicle 1.1641086481672056e-16 1.671610433342096e-15
lhumerus -53.61889958950727 -8.776455248807695 97.15418489428511
lradius 85.00411087224742
lwrist 33.384005874019984
lhand -31.572493388413854 1.2675232121268905
lfingers 7.125019999999998
lthumb -4.835963220487461 31.192303281748718
rclavicle 1.1641086481672056e-16 1.671610433342096e-15
rhumerus -38.116003706032934 15.475495006447462 -96.38969381584293
rradius 103.88600013704664
rwrist -19.346502735485554
rhand -19.385896511201864 39.28680668707636
rfingers 7.125019999999998
rthumb 6.93265351119358 9.420276822993854
5
root -1.6678185993219152 16.94191215384391 -26.357984535596596 4.4956660333138165 -3.325148560692332 -3.872778761977221
lfemur -39.360191239814796 12.822277834585325 -13.159713286976258
ltibia 112.44798337185489
lfoot 9.877135935534785 -16.699391523517427
ltoes -3.778547271091286
rfemur -15.637700018553364 8.035501307106191 31.96379193259582
rtibia 54.67650366301315
rfoot -25.11838205866476 -14.973587128871877
rtoes -17.62238551862764
lowerback 17.297688525513912 0.2825353407895813 2.3139865518017864
upperback -0.20083663480410952 1.1210813205338925 2.754335240234374
thorax -9.976134749257483 0.4960307504883557 1.3972643973040215
lowerneck -16.838714877635933 -3.220778417777473 -2.822699001108197
upperneck 14.821893089481392 -4.100519209280584 2.258058056679279
head 7.42965214226573 -1.9056583830305116 0.7391707793751899
lclavicle 1.1641084093311346e-16 1.6716104525360743e-15
lhumerus -56.81519715663878 -9.278063916266463 97.30628452531423
lradius 87.42950926532318
lwrist 34.9122986738363
lhand -30.38779650873233 -0.2770402507924965
lfingers 7.125019999999998
lthumb -3.6919865212592153 29.67070484932683
rclavicle 1.1641084093311346e-16 1.6716104525360743e-15
rhumerus -34.50200638944047 16.50779365602841 -96.47049348090131
rradius 107.36099735928507
rwrist -20.328299825593433
rhand -19.559595474235216 39.6851051811338
rfingers 7.125019999999998
rthumb 6.7649445224134235 9.813155372006245
6
root -1.6238498436414979 17.069910021222842 -25.37968474055516 4.724114270302133 -3.5472979590749247 -3.964508633275261
lfemur -44.00908861072604 12.941476846351176 -14.304911569483487
ltibia 109.92198130315646
lfoot 9.343055885686951 -16.46879182120244
ltoes 4.410435049030649
rfemur -10.979001973151398 8.401600751434543 32.04369148166892
rtibia 52.15030454445893
rfoot -23.74868275294419 -13.803289181376396
rtoes -18.25008532497877
lowerback 17.385287923498513 0.887715139719741 3.0757846265465334
upperback -0.46453816185549823 2.053337528205673 2.362128343536531
thorax -10.284179603700622 0.8829919986818188 0.2985431991728279
lowerneck -16.710315504754366 -3.720805058187493 -2.7230711457982473
upperneck 14.853192935776109 -4.86230577338262 2.5363260251381767
head 7.442841865836603 -2.237694897669592 0.7283200905236228
lclavicle 1.1641084142053292e-16 1.6716103982634046e-15
lhumerus -59.291294944028905 -9.975402359538496 97.38538415126224
lradius 88.9668084929863
lwrist 35.86979421819079
lhand -29.85489789732363 0.3450460810889453
lfingers 7.125019999999998
lthumb -3.177287912366055 30.301104142269207
rclavicle 1.1641084142053292e-16 1.6716103982634046e-15
rhumerus -31.672807846286826 16.437793732082895 -96.2386944246863
rradius 111.39499394631497
rwrist -20.93599807426301
rhand -19.262397248047762 39.66690534770947
rfingers 7.125019999999998
rthumb 7.051842759068824 9.804365411320868
7
root -1.5499919701588318 17.228207337995208 -24.33678521992012 5.166910887564615 -3.8404772393918165 -3.825298931231242
lfemur -47.409187184857984 12.39687853052953 -15.946209055526738
ltibia 105.5299829818311
lfoot 2.847810030472726 -14.558094499284604
ltoes -12.147299069701173
rfemur -6.568904114824209 8.697890280447865 31.62599245236313
rtibia 49.19690579334677
rfoot -19.837984204846663 -12.153092604157619
rtoes -20.48438280689026
lowerback 16.522293197476614 1.6745446752305744 3.865252668814756
upperback -0.5805986271463617 3.1614230699401276 1.8402725368792603
thorax -9.829987175097973 1.3613633698700216 -0.9694982627314267
lowerneck -17.266312324903772 -4.288781214457074 -2.063725481069696
upperneck 15.2368907255159 -5.740621886819948 2.2159883978558934
head 7.658647246169422 -2.6395207080411422 0.40135352374672334
lclavicle 1.1641080096453839e-16 1.6716104287090434e-15
lhumerus -61.40519313861082 -10.519891043287242 97.36668419404525
lradius 90.12670726078325
lwrist 36.014893503381046
lhand -29.667398396057802 2.0799123549771137
lfingers 7.125019999999998
lthumb -2.996208422732497 32.03860240365526
rclavicle 1.1641080096453839e-16 1.6716104287090434e-15
rhumerus -29.214909366077443 15.72479477945433 -95.725096387286
rradius 115.17199143342576
rwrist -21.889495256966903
rhand -19.455296081903693 44.52668745481543
rfingers 7.125019999999998
rthumb 6.865643929461029 14.658087596069436
